<svg viewBox="0 0 19 23" xmlns="http://www.w3.org/2000/svg" data-testid="logo-svg" class="styles__StyledLetterSvg-a7znz5-0 dzDwgK"><defs><linearGradient x1="50.00179%" y1="-0.0237017691%" x2="50.00179%" y2="99.9819397%"><stop stop-color="#05D2F5" offset="0%"></stop><stop stop-color="#0082D2" offset="100%"></stop></linearGradient></defs><g stroke="none" stroke-width="1" fill-rule="evenodd"><path d="M17.7699982,3.28448304 C16.8880579,1.86372355 15.064625,0.154736204 11.3780579,0.0819513939 C10.3174609,0.0295463306 9.41850564,0.00334379895 8.63298326,0.00334379895 C6.98519623,-0.0268194898 5.33988056,0.147179788 3.73268475,0.521571647 C3.13682628,0.654020632 2.61796941,1.0271116 2.29307533,1.55674202 C1.96818125,2.08637245 1.86459598,2.72796386 2.00566982,3.3368881 C2.09925191,4.53055899 1.23716236,9.88460962 0.911042957,11.9138501 C0.684177285,13.3258754 0.562236986,14.0799261 0.522535494,14.4816982 L0.522535494,14.5457489 C0.473169381,15.0412984 0.399343122,15.5339571 0.301341464,16.0218248 C-0.00209137182,17.707521 -0.382091372,19.8066349 0.868505643,21.3525843 C1.3647743,21.9639767 2.28641609,22.6947362 3.94253549,22.6947362 C4.092834,22.6947362 4.25163997,22.6947362 4.41328176,22.6772678 C6.22820714,22.6161286 7.20372952,22.3162552 8.2586549,21.4952425 C8.59012414,21.2373639 8.84616823,20.8909026 8.99880415,20.4937235 C10.0310857,21.939879 11.685201,22.7786551 13.4311922,22.7413185 C13.5786549,22.7413185 13.7317892,22.7413185 13.8820877,22.7238501 C15.6885056,22.604483 16.6952221,22.2667615 17.724625,21.4370147 C18.5825551,20.7424823 18.8364332,19.5188026 18.3286549,18.5256223 C17.9996997,17.8822046 17.6537295,17.1543565 15.9891027,13.18904 C18.6547743,10.9501792 18.7653713,8.65017924 18.8249236,7.45068557 L18.8249236,7.2876476 L18.8249236,7.12460962 C18.8308329,5.76835569 18.4652887,4.43770618 17.7699982,3.28448304 L17.7699982,3.28448304 Z M11.3050321,2.40678035 C7.4057784,2.20880567 6.01906198,2.40678035 4.21547989,2.80272972 C4.62667392,4.18564111 2.90816646,13.4205778 2.78339034,14.7190588 C2.61324108,17.1296917 1.0818978,20.7107044 4.28070377,20.2507044 C5.82055452,20.0207044 6.24025601,19.9799449 6.88965899,19.639312 C6.46145004,19.1036158 6.93503213,16.7279196 7.41145004,13.5748816 L8.86622616,13.5748816 L10.3947336,18.2942487 C10.3947336,18.2942487 11.02145,20.4865272 13.6275694,20.2972867 C15.4510023,20.1866538 16.1287635,19.8431095 16.3244351,19.6131095 C15.9189127,19.4326031 15.7232411,19.4617171 13.1738381,12.3579196 C16.5853306,10.3199449 16.5030918,8.30234997 16.5683157,7.14943858 C16.5683157,6.42159048 16.4520471,2.50576769 11.3050321,2.40678035 Z M11.9232411,7.91222339 C11.5318978,11.4524766 8.93145004,10.9982993 7.82831571,11.0215905 C8.23667392,8.44791959 8.46353959,6.79424871 8.74712168,4.83197023 C10.4117485,4.71551453 12.2521963,4.95424871 11.9232411,7.91222339 L11.9232411,7.91222339 Z"></path></g></svg>