<svg viewBox="0 0 120 32" xmlns="http://www.w3.org/2000/svg" data-testid="logo-svg" class="styles__StyledSvg-a7znz5-2 jOXedx"><defs><linearGradient x1="-54.9053486%" y1="-49.093192%" x2="173.163311%" y2="132.938058%" id="linearGradient"><stop stop-color="#0CECFC" offset="0%"></stop><stop stop-color="#0D6FCD" offset="100%"></stop></linearGradient></defs><g stroke="none" stroke-width="1" fill="#0CECFC" fill-rule="evenodd"><g id="Logo-logo"><g><g><g><g><path d="M114.094726,20.7265732 L114.439091,18.557584 C115.858688,18.4437474 116.888432,18.1509851 117.739577,17.637197 C118.772112,17.0162197 119.999992,15.7881137 119.999992,13.4656806 C120.001819,12.2177362 119.68826,10.9892668 119.088012,9.89270651 C118.465457,8.76378764 117.272554,8.06128152 115.975894,8.05996471 C115.912826,8.05996471 115.849478,8.06190353 115.786689,8.06522723 C115.711725,6.17220757 114.145765,4.67478689 112.236999,4.67090188 C110.47495,4.66405273 108.715075,4.79444642 106.97358,5.06088231 C105.460776,5.29603386 104.268895,6.70860499 104.01718,8.21285476 C104.002668,8.29816298 99.9947563,8.21285476 97.2953736,8.21285476 C95.223326,8.21285476 94.1215827,9.23766127 94.1215827,9.23766127 C94.1215827,9.23766127 93.1016051,7.9109523 90.4131059,8.21285476 C89.105035,8.27876395 87.8043142,8.44778945 86.5232377,8.71833365 C86.798536,7.09142766 86.9580898,5.44730338 87.0007156,3.7981545 L87.0007156,3.6206137 C87.0113856,1.65404467 85.4308772,0.0424639049 83.4499097,0 L83.4476772,0 C80.8523853,0 77.8831481,0.352034885 76.3873669,0.72401195 C74.7280024,1.1577884 73.6054287,2.69074287 73.7019374,4.39115741 C73.7856565,5.91728818 73.09916,10.4607817 73.09916,10.4607817 C71.4298012,9.07590803 69.2335703,8.28486819 66.7038583,8.28486819 C64.4069355,8.27314812 62.1422216,8.8211553 60.108468,9.8807966 C59.4236978,9.09092846 58.423494,8.64005269 57.3736443,8.64798207 L57.3716908,8.64798207 C55.377502,8.64798207 53.8300941,8.62222342 52.3541264,8.74713902 C51.2136046,8.82865045 50.1847396,9.45691564 49.5972567,10.4305914 C49.5612574,10.3627326 49.524142,10.2752086 49.4856312,10.2090117 C48.8602202,9.09086203 47.6765289,8.3936899 46.3880247,8.3845791 C43.7207343,8.3845791 39.1145098,9.16786364 38.9155374,9.2614811 C37.3372328,8.55617486 35.6197588,8.21082198 33.889322,8.2508003 C31.3226504,8.21563561 28.7975248,8.89590596 26.6010167,10.2142742 C26.2418618,4.83930252 21.5840104,1.17797354 15.022945,1.17797354 C15.022945,1.17797354 6.98758627,1.47849112 5.53896687,1.79368837 C3.81302185,2.16494478 2.62582421,3.74071123 2.75502791,5.48880827 C2.85181878,6.7896029 2.77317203,8.09740116 2.52117258,9.37753351 L0.163084745,24.477088 C0.0121113114,25.3924895 -0.426297681,28.1093347 1.28771125,30.1201712 C1.97867284,30.9314302 3.26320282,31.8975181 5.45608497,31.8975181 C6.495318,31.8975181 9.15088768,31.7867282 11.362188,30.7657993 C11.9494923,30.4947423 12.4512011,30.0698541 12.813319,29.5368624 C14.0132927,30.9217361 15.7764168,31.9299241 18.3585928,31.9598374 C20.6163322,31.9441098 22.8394319,31.4073114 24.8521248,30.3918834 C26.6734456,31.4816849 28.7687332,32.0366876 30.8949691,31.9925204 C34.7410243,31.9925204 38.344015,30.4414619 40.6211744,27.8788917 C41.9029137,31.1430389 44.219142,31.9000108 46.0883103,31.9000108 C47.6968332,31.9000108 49.5726991,31.7291174 51.4560996,30.7851875 C53.0065772,30.0074425 53.74191,27.4210524 54.066461,26.8477147 C55.6373103,30.023784 58.8004967,31.9994448 62.7986416,31.9994448 C65.9828213,32.0279167 69.0785954,30.960586 71.5592867,28.9790353 C71.7285309,29.2742777 71.9252948,29.5531192 72.1469948,29.8118983 C72.9629769,30.7613677 74.5168033,31.8966871 77.2851147,31.8966871 C79.2455093,31.9313258 81.1698715,31.3713641 82.8010868,30.2916186 C83.7049739,31.1519021 85.1547096,31.9986138 87.366289,31.9986138 C89.0269572,31.9742044 90.6571991,31.5526402 92.1187429,30.769677 C93.1998355,31.5194476 94.574503,31.8989029 96.2254436,31.8989029 C98.8207355,31.8989029 101.147289,30.9984581 102.695255,29.4479535 C103.970018,30.70348 106.193318,31.9999987 109.946724,31.9999987 C113.439764,31.9999987 116.877828,29.7842009 118.644301,26.7948126 C120.000271,24.5028467 118.462072,20.5714673 114.095563,20.7257422 L114.094726,20.7265732 Z" fill="currentColor"></path><path d="M12.3110044,4.72048036 C9.86612781,4.75344036 7.15418727,5.02875324 6.36499527,5.24867118 L6.36499527,5.24867118 C7.15418727,5.02709139 9.86612781,4.75260943 12.3110044,4.71937246 L12.3110044,4.72048036 Z M90.3980365,23.8148414 C90.4019434,23.5855064 90.4189662,23.3337363 90.4482679,23.0670097 C90.4186872,23.3345672 90.4019434,23.5863373 90.3980365,23.8148414 L90.3980365,23.8148414 Z M90.593381,25.0612277 C90.5252044,24.931938 90.4781094,24.7927387 90.4538492,24.6488123 C90.4781094,24.7927387 90.5252044,24.931938 90.593381,25.0612277 L90.593381,25.0612277 Z M13.8475289,8.25578584 L12.4661638,8.25578584 C12.3435395,8.8111654 12.253714,9.37318154 12.1971465,9.93896129 L11.1863779,16.1179906 L12.870527,16.1179906 C15.0603395,16.1179906 16.7104429,14.2664145 16.7104429,11.5155015 C16.7104429,9.50244911 15.5992114,8.25578584 13.8475289,8.25578584 L13.8475289,8.25578584 Z M32.6809764,14.9137045 C31.6704869,14.9137045 30.9627815,16.902937 30.5927431,18.4755995 L31.131615,18.4755995 C32.41168,18.4755995 33.3884028,17.6504918 33.5566781,16.6439656 C33.5755388,16.5076672 33.5848632,16.3702357 33.5845845,16.2326581 C33.5974717,15.9151661 33.5186568,15.6006328 33.3574267,15.3261198 C33.2177719,15.08229 32.9618716,14.926595 32.6795811,14.9137045 L32.6809764,14.9137045 Z M65.6900201,15.1524567 C65.6547003,15.1223315 65.6163611,15.0958805 65.575604,15.0735189 C65.4986854,15.0314177 65.4122864,15.0093127 65.3244467,15.0092607 C65.1402468,15.0156885 64.9637155,15.0840536 64.8238065,15.2031431 C64.7668453,15.2479986 64.7131326,15.2967741 64.6630659,15.3491087 C64.616884,15.3967212 64.5732884,15.4467397 64.5324641,15.4989521 C64.2274867,15.9144338 63.9892228,16.3743138 63.826154,16.8622217 C63.7915501,16.957224 63.7575043,17.056104 63.7248539,17.154984 C63.6196469,17.4754438 63.523649,17.823324 63.4390927,18.1889307 C63.3760243,18.4659054 63.3185372,18.7495275 63.2685848,19.0431207 C63.1137892,19.9604435 63.0353863,20.8888627 63.0341713,21.8189615 C63.0320494,22.2876069 63.0568332,22.7559917 63.1084023,23.2218385 C63.120402,23.3273659 63.1343552,23.4287387 63.1497037,23.5265107 C63.1885979,23.7928077 63.2471732,24.0559048 63.3249557,24.3136729 C63.3674814,24.4528179 63.4203702,24.5886328 63.4831847,24.7199949 C63.6581577,25.0756304 63.8808504,25.2739443 64.1456818,25.2739443 C64.2489748,25.2697057 64.3499812,25.2424422 64.4412103,25.1941756 C64.5742683,25.129467 64.6941375,25.0409188 64.7947839,24.9329884 C65.1977518,24.5108789 65.5649996,23.7239937 65.8502026,22.744888 C65.9199685,22.5050279 65.9849904,22.2557507 66.0435937,21.9948405 C66.1139178,21.6849981 66.1758699,21.363615 66.2294501,21.0306914 C66.2978207,20.6055352 66.35168,20.1668072 66.3865629,19.720047 C66.4194925,19.3045849 66.4367944,18.8835833 66.4367944,18.4645205 C66.4711679,17.5466744 66.3474404,16.6297388 66.070942,15.7532149 C65.9944989,15.5254537 65.8639406,15.319302 65.6902991,15.1521797 L65.6900201,15.1524567 Z M114.094726,20.7265732 L114.439091,18.557584 C115.858688,18.4437474 116.888432,18.1509851 117.739577,17.637197 C118.772112,17.0162197 119.999992,15.7881137 119.999992,13.4656806 C120.001819,12.2177362 119.68826,10.9892668 119.088012,9.89270651 C118.465457,8.76378764 117.272554,8.06128152 115.975894,8.05996471 C115.912826,8.05996471 115.849478,8.06190353 115.786689,8.06522723 C115.711725,6.17220757 114.145765,4.67478689 112.236999,4.67090188 C110.47495,4.66405273 108.715075,4.79444642 106.97358,5.06088231 C105.460776,5.29603386 104.268895,6.70860499 104.01718,8.21285476 C104.002668,8.29816298 99.9947563,8.21285476 97.2953736,8.21285476 C95.223326,8.21285476 94.1215827,9.23766127 94.1215827,9.23766127 C94.1215827,9.23766127 93.1016051,7.9109523 90.4131059,8.21285476 C89.105035,8.27876395 87.8043142,8.44778945 86.5232377,8.71833365 C86.798536,7.09142766 86.9580898,5.44730338 87.0007156,3.7981545 L87.0007156,3.6206137 C87.0113856,1.65404467 85.4308772,0.0424639049 83.4499097,0 L83.4476772,0 C80.8523853,0 77.8831481,0.352034885 76.3873669,0.72401195 C74.7280024,1.1577884 73.6054287,2.69074287 73.7019374,4.39115741 C73.7856565,5.91728818 73.09916,10.4607817 73.09916,10.4607817 C71.4298012,9.07590803 69.2335703,8.28486819 66.7038583,8.28486819 C64.4069355,8.27314812 62.1422216,8.8211553 60.108468,9.8807966 C59.4236978,9.09092846 58.423494,8.64005269 57.3736443,8.64798207 L57.3716908,8.64798207 C55.377502,8.64798207 53.8300941,8.62222342 52.3541264,8.74713902 C51.2136046,8.82865045 50.1847396,9.45691564 49.5972567,10.4305914 C49.5612574,10.3627326 49.524142,10.2752086 49.4856312,10.2090117 C48.8602202,9.09086203 47.6765289,8.3936899 46.3880247,8.3845791 C43.7207343,8.3845791 39.1145098,9.16786364 38.9155374,9.2614811 C37.3372328,8.55617486 35.6197588,8.21082198 33.889322,8.2508003 C31.3226504,8.21563561 28.7975248,8.89590596 26.6010167,10.2142742 C26.2418618,4.83930252 21.5840104,1.17797354 15.022945,1.17797354 C15.022945,1.17797354 6.98758627,1.47849112 5.53896687,1.79368837 C3.81302185,2.16494478 2.62582421,3.74071123 2.75502791,5.48880827 C2.85181878,6.7896029 2.77317203,8.09740116 2.52117258,9.37753351 L0.163084745,24.477088 C0.0121113114,25.3924895 -0.426297681,28.1093347 1.28771125,30.1201712 C1.97867284,30.9314302 3.26320282,31.8975181 5.45608497,31.8975181 C6.495318,31.8975181 9.15088768,31.7867282 11.362188,30.7657993 C11.9494923,30.4947423 12.4512011,30.0698541 12.813319,29.5368624 C14.0132927,30.9217361 15.7764168,31.9299241 18.3585928,31.9598374 C20.6163322,31.9441098 22.8394319,31.4073114 24.8521248,30.3918834 C26.6734456,31.4816849 28.7687332,32.0366876 30.8949691,31.9925204 C34.7410243,31.9925204 38.344015,30.4414619 40.6211744,27.8788917 C41.9029137,31.1430389 44.219142,31.9000108 46.0883103,31.9000108 C47.6968332,31.9000108 49.5726991,31.7291174 51.4560996,30.7851875 C53.0065772,30.0074425 53.74191,27.4210524 54.066461,26.8477147 C55.6373103,30.023784 58.8004967,31.9994448 62.7986416,31.9994448 C65.9828213,32.0279167 69.0785954,30.960586 71.5592867,28.9790353 C71.7285309,29.2742777 71.9252948,29.5531192 72.1469948,29.8118983 C72.9629769,30.7613677 74.5168033,31.8966871 77.2851147,31.8966871 C79.2455093,31.9313258 81.1698715,31.3713641 82.8010868,30.2916186 C83.7049739,31.1519021 85.1547096,31.9986138 87.366289,31.9986138 C89.0269572,31.9742044 90.6571991,31.5526402 92.1187429,30.769677 C93.1998355,31.5194476 94.574503,31.8989029 96.2254436,31.8989029 C98.8207355,31.8989029 101.147289,30.9984581 102.695255,29.4479535 C103.970018,30.70348 106.193318,31.9999987 109.946724,31.9999987 C113.439764,31.9999987 116.877828,29.7842009 118.644301,26.7948126 C120.000271,24.5028467 118.462072,20.5714673 114.095563,20.7257422 L114.094726,20.7265732 Z M23.0563502,11.4515203 C22.8495641,14.2489651 21.1109975,16.5536718 18.3959873,17.9690127 L18.3959873,17.9690127 L20.8210504,24.4779189 C21.5281977,26.2572046 21.9325609,26.9734613 22.7407292,27.5431983 C22.5495282,27.6438012 22.3519012,27.7318826 22.1491143,27.8068782 C20.92984,28.2171546 19.649298,28.4192565 18.3619415,28.4045897 C17.1153642,28.4045897 15.3636817,28.1151511 14.3191464,24.9617938 L12.4664429,19.6521882 L10.6477851,19.6521882 L9.83850051,24.7274732 C9.74150936,25.2947503 9.67981252,25.8674179 9.65376037,26.4422237 L9.65376037,26.5976066 C9.64804863,26.9242232 9.72074821,27.2474984 9.86584874,27.5407055 C9.86836032,27.5454141 9.87031376,27.5498457 9.87254627,27.5545543 C8.49146027,28.1915961 6.57178144,28.357781 5.4597128,28.357781 C4.49973384,28.357781 3.6072883,28.0464614 3.56207999,26.3912604 C3.55670296,25.9374181 3.59407396,25.4840702 3.67370545,25.0371309 L6.03151421,9.94034617 C6.23882751,8.81167943 6.34667475,7.6672323 6.35383273,6.5199852 C6.34634235,7.66088528 6.23849325,8.79895736 6.03151421,9.92123491 C6.23859066,8.77556602 6.34642422,7.61439934 6.35383273,6.45046454 C6.35160022,6.05549857 6.36639059,5.89152953 6.33234483,5.10547524 L6.36527434,5.10547524 L6.36527434,5.24396261 C7.15446633,5.02404467 9.83487268,4.74873178 12.2797493,4.71577179 C12.4430015,4.71300204 12.5741615,4.71217112 12.7360184,4.71217112 L15.0268519,4.71217112 C16.6514794,4.67337138 18.2631011,5.00839407 19.7354928,5.69099982 C20.1456652,5.89206211 20.5345659,6.1333056 20.8963976,6.41113413 C21.2390152,6.67445943 21.5511492,6.97468898 21.8270749,7.30631646 C22.2316651,7.79217916 22.5461204,8.3454841 22.7557987,8.94046738 C22.9727643,9.56402814 23.0815616,10.2196056 23.0775591,10.8792905 C23.0775591,11.0698491 23.0703034,11.2587459 23.0566293,11.4445959 L23.0563502,11.4515203 Z M36.9202323,12.2625023 C36.914048,12.2551582 36.9104256,12.2460242 36.9099069,12.2364667 C36.3564184,12.045267 35.7827745,11.9173096 35.200084,11.8550725 C35.7895601,11.9164377 36.3700503,12.0443976 36.9302786,12.2364667 C36.9287962,12.2459313 36.9249597,12.2548797 36.919116,12.2625023 L36.9202323,12.2625023 Z M33.9777852,11.7858288 L33.9819711,11.7858288 C27.0810062,11.7858288 24.1260012,17.0372697 24.1260012,21.7663363 C24.1260012,17.0361618 27.0723552,11.7858288 33.976948,11.7858288 L33.9777852,11.7858288 Z M32.0921521,21.550573 L32.0413625,21.5547276 C31.824251,21.5716231 31.600442,21.5865797 31.3716098,21.5965508 C31.3224946,21.5982126 31.2744956,21.6018133 31.2251013,21.6034752 C30.9652931,21.6134463 30.6993454,21.6198167 30.4239096,21.6198167 L30.3558181,21.6198167 C30.3578645,21.7431628 30.3627947,21.8649393 30.3706085,21.9851463 C30.4861408,23.7921295 31.2424033,25.2927786 32.915948,25.2927786 C33.0417202,25.292116 33.1673736,25.2849975 33.2924049,25.2714515 C34.8777654,25.1038818 35.8076055,23.9325557 36.620797,23.9325557 C37.0034299,23.9740662 37.371762,24.1004366 37.6985408,24.302317 L38.5078254,24.8396479 C38.5065247,24.8407489 38.5055584,24.8421875 38.5050347,24.8438026 C37.938965,25.658051 37.2176805,26.3543644 36.3819185,26.8934156 C34.7486136,27.9416925 32.839866,28.4881008 30.8949691,28.4641393 C26.7310603,28.4641393 24.2169759,26.1278574 23.9794928,22.3792814 C23.9750278,22.317516 24.0607003,22.2551967 24.0573515,22.1931544 C24.0520493,22.0590986 24.1271174,21.9278126 24.1271174,21.7896022 L24.1271174,21.7763074 C24.1271174,17.0502875 27.0798899,11.8306987 33.9780642,11.8306987 C34.9754513,11.8124471 35.9683341,11.9679705 36.9115813,12.2901998 C36.9110756,12.2922637 36.9102268,12.2942294 36.9090697,12.2960163 C38.567545,12.8964975 39.5289193,14.0581295 39.5289193,15.6634751 C39.5289193,17.5524427 38.3144343,21.0254289 32.0921521,21.55085 L32.0921521,21.550573 Z M51.2417787,24.6374564 C50.6524072,25.5898856 50.1669791,26.6019417 49.7937175,27.656481 C48.6495565,28.2605629 47.3680962,28.3605507 46.0880313,28.3605507 C45.0102875,28.3605507 44.0335647,27.8240507 43.4949718,25.0401776 L41.9118438,17.121747 C41.5904826,15.5182504 41.093302,13.9544694 40.4291786,12.4583235 C40.9974101,12.3235607 41.5734647,12.2236607 42.154071,12.1591907 L42.1576988,12.1591907 C42.289975,12.1431262 42.4272743,12.1270617 42.5682015,12.112382 C42.58355,12.1101662 42.5988985,12.1087813 42.6148051,12.1071195 C42.7484766,12.0935477 42.886334,12.079422 43.0280984,12.0672351 C43.0426097,12.0672351 43.0574,12.0641884 43.0719114,12.0633575 C43.3847417,12.03566 43.7137578,12.0101783 44.0617501,11.9894052 C44.0801683,11.9894052 44.1002609,11.9877434 44.1175628,11.9863585 C44.2626759,11.9784186 44.4102076,11.9709403 44.5601578,11.9639236 C44.6106683,11.9617078 44.6622951,11.9600459 44.7130847,11.9572762 C44.8358727,11.9522906 44.960242,11.9476744 45.0861928,11.9434274 C45.1461915,11.9434274 45.2064692,11.9395498 45.2673051,11.9378879 C45.3948372,11.9345642 45.5248808,11.9323484 45.6554826,11.9295787 C45.7112953,11.9295787 45.7671081,11.9273629 45.8229208,11.9268089 C46.0093353,11.9240392 46.1977033,11.9226543 46.3899781,11.9226543 C46.6692014,12.4174237 46.9073782,12.9339334 47.1021486,13.4670654 C47.165217,13.6393437 47.222332,13.8102371 47.2734937,13.9797457 C47.3907024,14.360267 47.478215,14.7491812 47.5352554,15.1430395 L48.5795115,22.3557385 C49.4552133,20.6445886 50.2977064,18.8658569 51.072108,17.0882331 C51.5867208,15.9042026 52.0171596,14.6858573 52.3602658,13.4421377 C52.4718913,13.0268603 52.5702147,12.609644 52.6552361,12.1904889 C53.0389486,12.1578059 53.4232193,12.1314933 53.8060946,12.1093353 C54.0215317,12.0977024 54.2366898,12.090224 54.4515688,12.0816378 C54.6134257,12.0749904 54.7755617,12.0661272 54.9374186,12.0611417 C55.2429933,12.0503397 55.5474518,12.0436923 55.8516311,12.0387067 C55.9160949,12.0387067 55.9808376,12.0351061 56.0450223,12.0345521 C56.407805,12.0281817 56.7689134,12.025412 57.1289055,12.0243041 L57.3716908,12.0243041 C57.2695073,13.0932826 56.9846013,14.1371743 56.5291977,15.1111874 C55.0468116,18.3988775 53.1943871,21.4860379 51.2401044,24.6391182 L51.2417787,24.6374564 Z M70.8515813,24.674571 L70.8515813,24.674571 C70.2784895,25.4067116 69.601733,26.0527474 68.8423231,26.592621 C68.84116,26.5935164 68.839949,26.5943485 68.8386952,26.5951138 C68.6952565,26.6973175 68.5487481,26.7945356 68.3986119,26.88843 C68.3799146,26.9008939 68.3606592,26.9125268 68.3427991,26.9252677 C68.2086625,27.0081754 68.0723864,27.0882211 67.9339709,27.1654048 C67.9060645,27.1795305 67.882065,27.1944871 67.8563912,27.2083358 C67.7168594,27.2828421 67.5773275,27.3554094 67.4377957,27.4240992 C67.4137962,27.4357321 67.3903549,27.447642 67.3660764,27.458444 C67.2053357,27.5348891 67.0418044,27.6082874 66.8752034,27.6764231 C66.8722528,27.6784554 66.8690674,27.6801292 66.8657152,27.6814087 C66.5200437,27.8223886 66.1668747,27.9445316 65.8077849,28.0472923 C65.7631348,28.0608641 65.7176474,28.0716661 65.6729972,28.083299 C65.5415582,28.1190288 65.409003,28.1536506 65.2756106,28.1843948 C65.2150538,28.1982435 65.1536597,28.2120923 65.0919867,28.2237252 C64.9719893,28.2492069 64.8510617,28.2728421 64.7292039,28.2946307 C64.6613915,28.3068176 64.593579,28.3184506 64.5252084,28.3289756 C64.404932,28.3472559 64.2846555,28.3635975 64.1624257,28.3782771 C64.0940551,28.3868633 64.0248473,28.3960035 63.9556395,28.4034818 C63.8255958,28.4173306 63.694715,28.4264707 63.563276,28.43478 C63.5027192,28.4392116 63.4421624,28.445028 63.3804893,28.4486287 C63.1882145,28.4580458 62.9945443,28.4635853 62.7989207,28.4635853 C62.5619956,28.4635853 62.3314891,28.4533373 62.1068428,28.434226 C62.0306585,28.4278556 61.958381,28.4159457 61.8835919,28.4065285 C61.7376416,28.3899101 61.5911332,28.3743995 61.4504851,28.3511336 C61.3636963,28.3359 61.2830469,28.314296 61.1970953,28.2957386 C61.0737492,28.269703 60.9492868,28.2439444 60.8301266,28.2126462 C60.7430588,28.1882725 60.6598978,28.1594671 60.5750625,28.1317696 C60.463437,28.0968708 60.3518115,28.0625259 60.2468836,28.0209797 C60.1617692,27.9880197 60.0794454,27.9511821 59.9982379,27.9154523 C59.8980541,27.8722443 59.7987074,27.8282053 59.7029886,27.7802887 C59.621502,27.7392964 59.5430851,27.6944265 59.4649473,27.6503875 C59.3745306,27.5988702 59.2849512,27.546799 59.1984415,27.491404 C59.1214199,27.4415486 59.047189,27.3897543 58.9735162,27.3362982 C58.8920296,27.2775795 58.8122174,27.21803 58.7343586,27.1559876 C58.6629183,27.0980999 58.5948268,27.0379964 58.5250609,26.9773389 C58.4522253,26.9116959 58.3813431,26.844668 58.3124144,26.7754243 C58.2434857,26.7061807 58.1818126,26.6433074 58.1193024,26.5737867 C58.0567921,26.5042661 57.9931656,26.4275441 57.9323297,26.352207 C57.8714938,26.2768698 57.8137277,26.2048564 57.7576359,26.1278574 C57.7015441,26.0508584 57.648801,25.9697048 57.5963371,25.8879973 C57.5438731,25.8062898 57.4900138,25.726521 57.4408986,25.6412128 C57.3917834,25.5559046 57.3496448,25.4725352 57.3049946,25.387227 C57.2603444,25.3019188 57.2117874,25.2099632 57.1696488,25.1166227 C57.1300217,25.0299296 57.0954178,24.937974 57.0596977,24.8485111 C57.0206288,24.7521239 56.9798855,24.6560137 56.9455607,24.5557488 C56.9140265,24.4646242 56.8883526,24.3698988 56.8604462,24.2771123 C56.8291911,24.1713079 56.7951453,24.0679963 56.7680762,23.9596992 C56.7457511,23.8694055 56.7301235,23.7730182 56.71031,23.6802317 C56.6419482,23.3582102 56.5934868,23.0323416 56.5651969,22.7044497 C56.5649924,22.7014064 56.5649924,22.6983529 56.5651969,22.6953096 C56.5456624,22.4543415 56.535058,22.2089419 56.535058,21.9555101 C56.535058,18.4199276 58.1553016,15.4526973 60.7112455,13.6609477 L60.7112455,13.6609477 C61.125241,13.3706942 61.5614411,13.1129706 62.0158681,12.8901271 C62.0259144,12.8845876 62.0359607,12.879602 62.046286,12.8751704 C62.4968024,12.6555841 62.9632041,12.4696793 63.4416043,12.3190052 L63.5094167,12.2976781 C63.7427139,12.2253877 63.979918,12.1619605 64.22075,12.1057346 C64.2511679,12.0988103 64.2815858,12.0929938 64.3120038,12.0863464 C64.5352547,12.0364909 64.7618544,11.9927289 64.9915238,11.9578301 C65.0180348,11.9536755 65.0437087,11.948136 65.0702197,11.9445353 C65.3088191,11.9088056 65.5516045,11.882216 65.7957852,11.8614429 L65.9545724,11.8503639 C66.2032181,11.8342994 66.4538173,11.8226664 66.7080443,11.8226664 C66.9234814,11.8226664 67.1325001,11.8337454 67.3387281,11.848979 C67.3964943,11.8539646 67.4537023,11.8597811 67.5106313,11.8653206 C67.6761161,11.8816621 67.837973,11.90382 67.9970393,11.9301326 C68.0375035,11.93678 68.0807584,11.9423195 68.1201063,11.9497978 C68.307079,11.9846967 68.4890285,12.0268891 68.6659548,12.0763753 C68.7217676,12.0918859 68.7775803,12.1096123 68.833393,12.1267847 C68.960367,12.1652842 69.0845503,12.2076613 69.2062221,12.2530852 C69.2653835,12.2749662 69.3248241,12.2971242 69.3831484,12.321221 C69.5377497,12.3849252 69.6901184,12.4530609 69.8341153,12.5283981 C69.894393,12.5591423 69.951322,12.5940411 70.0093672,12.6267241 C70.1017373,12.6787953 70.1918749,12.7322515 70.2806171,12.7887543 C70.3489877,12.8322393 70.4170792,12.8771093 70.4834964,12.923918 C70.5610761,12.9793129 70.6355861,13.0369237 70.709817,13.0956423 C70.8214425,13.1823354 70.9269285,13.2729061 71.0301821,13.3681855 C71.0876692,13.4213646 71.1451563,13.4734359 71.1998528,13.5291078 C71.2696187,13.5986284 71.3365939,13.6709188 71.402453,13.745702 C71.4440335,13.7919568 71.4844977,13.8407043 71.5246828,13.8888979 C71.6758841,14.0700878 71.8156814,14.2603613 71.9432783,14.458635 C71.9432783,14.4608508 71.946348,14.4630666 71.9474643,14.4652824 C72.0088583,14.5616696 72.0655082,14.6616575 72.1210419,14.7624763 C72.1458785,14.8076231 72.1701571,14.85277 72.1944356,14.8981939 C72.7278359,15.9638798 72.995162,17.1412658 72.9738604,18.3310187 C73.0027638,20.6208347 72.2571718,22.8541307 70.8563254,24.6737401 L70.8515813,24.674571 Z M83.2961457,6.11449419 C83.1993106,6.99139619 83.0645228,7.91482995 82.9132703,8.80114909 L82.1983093,13.3421498 L80.4201157,24.6371794 C80.3996989,24.7655451 80.3873961,24.895053 80.3832793,25.024944 C80.3832793,25.0526415 80.3813259,25.0831087 80.3807677,25.1113602 C80.3795091,25.2182678 80.3864124,25.3251165 80.4014184,25.430989 C80.4042091,25.4539779 80.4100694,25.4730892 80.4142554,25.4944162 C80.4281937,25.5696788 80.4479731,25.6437595 80.4734169,25.715996 C80.482905,25.7436935 80.4909979,25.7700061 80.5013232,25.7949338 C80.5314583,25.8663843 80.5688605,25.9345964 80.6129487,25.9985102 C80.6305297,26.023161 80.6503432,26.0455959 80.6687614,26.0685848 C80.7027376,26.1100382 80.7400703,26.1486663 80.7803869,26.1840833 C80.8015957,26.2026406 80.8216883,26.2234137 80.8442925,26.2394782 C81.0944069,26.4104556 81.393662,26.496275 81.697111,26.4840469 C81.4435221,26.8421901 81.1254462,27.1507486 80.758899,27.3941859 C80.7134116,27.4249301 80.6682033,27.4562282 80.6215997,27.4866955 C80.5314621,27.5440292 80.4385339,27.5974853 80.342536,27.6509415 C80.281142,27.6836245 80.2172364,27.7146457 80.1536099,27.7453899 C80.0604027,27.7908137 79.9688698,27.8370685 79.8711975,27.8775068 C79.7177125,27.941488 79.5592044,27.9999296 79.3948359,28.0517239 C79.3222793,28.0744358 79.2458159,28.0921622 79.1715849,28.1126583 C79.0507504,28.1456183 78.9296368,28.1774704 78.8037791,28.203783 C78.7261994,28.2206785 78.6480615,28.2339733 78.5685284,28.247822 C78.4315081,28.2721958 78.2922554,28.291861 78.1499329,28.3082025 C78.080167,28.3162348 78.0104011,28.3256519 77.9406352,28.3311914 C77.7257562,28.3500257 77.5072493,28.3619356 77.2837194,28.3619356 L77.2837194,28.3619356 C77.1907912,28.3619356 77.0970258,28.3599968 77.0046557,28.3561191 C76.9703309,28.3544573 76.935727,28.3514106 76.9014022,28.3494717 C76.8427988,28.3458711 76.7833582,28.3411625 76.7250339,28.3364539 C76.6826163,28.3325763 76.6413148,28.3267598 76.5988972,28.3214973 C76.5486657,28.3159578 76.4987133,28.3093104 76.44904,28.302386 C76.3993667,28.2954617 76.3563909,28.2865985 76.3095082,28.2774583 C76.2626255,28.2683181 76.2218822,28.2605629 76.1783483,28.2511457 C76.129233,28.2400667 76.0812341,28.2276029 76.0329561,28.214862 C75.9944453,28.2048909 75.9570508,28.192704 75.9193772,28.1813481 C75.8685876,28.1658375 75.817519,28.149219 75.7681247,28.1317696 C75.7368696,28.1195827 75.7067307,28.1068419 75.6757546,28.0938241 C75.6221744,28.07222 75.5685942,28.0497851 75.5172465,28.0254113 C75.4979911,28.0162711 75.4798519,28.0043612 75.4614337,27.9943901 C75.1874164,27.8551574 74.9493683,27.6551889 74.7657281,27.4099735 C74.7551236,27.3961247 74.7442402,27.3839378 74.734752,27.3700891 C74.6943906,27.3116792 74.6571313,27.2512163 74.6231265,27.1889476 C74.611964,27.1681745 74.6008014,27.1487863 74.589918,27.1282902 C74.5581047,27.0648629 74.528803,26.9975581 74.5020129,26.9288683 C74.4925247,26.9042176 74.4833156,26.8795668 74.4741065,26.8543621 C74.4492699,26.7831796 74.4269448,26.7081195 74.4079685,26.6302896 C74.4012709,26.604254 74.3959687,26.5762795 74.3903875,26.549413 C74.3728064,26.4663205 74.3574579,26.3832281 74.3462954,26.2923804 C74.3435048,26.2699455 74.3423885,26.2436329 74.3395979,26.2195361 C74.3301097,26.121487 74.3220169,26.0220531 74.3203425,25.9148638 C74.3164833,25.6222812 74.338051,25.3299131 74.3848062,25.0410086 L76.9454942,8.90252184 C76.9789819,8.69340592 77.0105161,8.49176832 77.0398177,8.29622416 C77.1567183,7.56353696 77.2329248,6.82502237 77.2680918,6.08402697 C77.290696,5.52426103 77.2862309,4.93125813 77.2482783,4.23965223 C77.3431599,4.21527845 77.4511576,4.1917356 77.5694805,4.16846972 C77.6878035,4.14520384 77.8164519,4.12166099 77.9545884,4.09867209 C78.1672349,4.06358862 78.4005321,4.02952073 78.65448,3.99646841 C78.7716867,3.98068085 78.8928004,3.96627817 79.0172627,3.95187548 C79.390929,3.90866742 79.7964085,3.86878306 80.2244921,3.83471517 C80.5099742,3.81172627 80.8052235,3.79039921 81.1066123,3.77350375 C81.8600841,3.7291878 82.6568109,3.7028752 83.44684,3.7028752 C83.44684,4.23134298 83.4136315,4.83071631 83.3561444,5.46692727 C83.337168,5.67881294 83.3148429,5.89485323 83.2911225,6.11394024 L83.2961457,6.11449419 Z M100.571581,26.483493 C99.796063,27.623244 98.1794472,28.3613817 96.2251645,28.3613817 C96.0192155,28.3613817 95.8124294,28.3530724 95.609271,28.3336842 C95.4091606,28.3144206 95.2106404,28.281381 95.0151445,28.2348042 C94.8268799,28.1901537 94.6436314,28.1267752 94.4681798,28.0456305 C93.6100591,27.6434632 93.0550015,26.7817948 93.3284838,25.0415625 L93.3628087,24.7391061 C93.272206,24.9147081 93.1762081,25.083478 93.074815,25.2454159 C92.8789616,25.5576129 92.6574698,25.853226 92.4125969,26.1292423 C92.1820846,26.3892301 91.9312654,26.6307628 91.6624739,26.8515924 C91.5322442,26.9594279 91.3994099,27.0609853 91.263971,27.1562646 C91.0011065,27.3417467 90.7258771,27.5093312 90.4401751,27.6578658 C89.9190869,27.929039 89.3670463,28.1370619 88.7959321,28.2774583 C88.5461258,28.3385475 88.2930894,28.3857985 88.0379952,28.4189924 C87.8151631,28.4477545 87.5907177,28.4624637 87.3660099,28.4630314 C87.2208968,28.4630314 87.0822022,28.4549991 86.9474145,28.4417043 C86.8982992,28.4372727 86.8511375,28.4289635 86.8028595,28.423424 C86.7224891,28.412622 86.6437932,28.3998811 86.5676088,28.3846475 C86.5087264,28.3727376 86.4526346,28.3588889 86.3968219,28.3442092 C86.3410091,28.3295296 86.2838011,28.3123571 86.2293837,28.2946307 C86.1663153,28.2749655 86.103526,28.2544694 86.0432482,28.2300956 C86.0128303,28.2187397 85.9846449,28.2023982 85.9550641,28.1907652 C84.5103516,27.5537233 84.0663613,25.8301096 84.4363997,23.5652872 L85.4468892,17.1242398 C85.4770281,16.9381128 85.5027019,16.7611259 85.5306083,16.5866318 C85.5400965,16.519327 85.5495846,16.453407 85.5585147,16.3883179 C85.5727469,16.2850064 85.586421,16.1844645 85.599258,16.0836457 C85.6101414,16.0005533 85.6204668,15.9174609 85.630234,15.8363073 C85.6386059,15.7606932 85.6466988,15.686187 85.6545126,15.6122347 C85.6921862,15.2632466 85.7189763,14.9167512 85.7348829,14.5647163 C85.7368363,14.5287096 85.7393479,14.4921489 85.7404642,14.4558652 C85.7449292,14.337874 85.748278,14.217113 85.7502314,14.0957981 C85.7502314,14.0581295 85.7502314,14.0207379 85.7519058,13.9825154 C85.7535802,13.8539991 85.7549755,13.7249289 85.7535802,13.5914271 C85.7502314,13.2385613 85.739906,12.8679691 85.717581,12.4594314 C85.7895794,12.441705 85.8693916,12.4239786 85.9550641,12.4059752 C86.0265044,12.3907416 86.1021307,12.376062 86.1816638,12.3605514 L86.2863127,12.343102 C86.3421254,12.3334079 86.3979381,12.3226058 86.4557043,12.3131887 C86.4958895,12.3068183 86.5394234,12.3004479 86.5801667,12.2943544 C86.638491,12.2854912 86.6970944,12.2755201 86.7587674,12.2666569 C86.8025804,12.2611174 86.8494631,12.2544701 86.8952295,12.2483766 C86.9571817,12.2392364 87.0191338,12.2306502 87.0841556,12.2206791 C87.1335499,12.2143087 87.1846186,12.2082153 87.2354081,12.2023988 C87.30043,12.1940896 87.3654518,12.1855033 87.4332643,12.1777481 C87.4865654,12.1716546 87.5409828,12.1652842 87.5956793,12.1597447 C87.6637708,12.1514355 87.7318624,12.1442341 87.8013492,12.1364788 L87.9779965,12.1193064 C88.0474834,12.1118281 88.1175283,12.1054576 88.1875733,12.0988103 L88.3742669,12.0813608 C88.4462653,12.0744365 88.5199381,12.068343 88.5936109,12.0628035 C88.6566793,12.057541 88.7200267,12.0520015 88.7839323,12.047016 L89.0136017,12.0301205 L89.2089463,12.0157178 C89.2873631,12.0107323 89.3666172,12.0065777 89.4464294,12.0015921 L89.6434484,11.9888513 C89.7271675,11.9844197 89.8108865,11.980542 89.8946056,11.9758335 C89.9585112,11.9727868 90.0218587,11.9689091 90.0857642,11.9666933 C90.1745065,11.9619847 90.264365,11.958661 90.3536653,11.9550604 C90.4150593,11.9531215 90.4758952,11.9497978 90.5370102,11.9475821 C90.6296593,11.9442584 90.7225875,11.9423195 90.8160738,11.9392728 C90.8766306,11.937057 90.9371874,11.9353952 90.9974652,11.9337333 C91.0959747,11.9312405 91.1947632,11.9295787 91.2932727,11.9281938 C91.3490854,11.9281938 91.4026656,11.925701 91.457083,11.925701 C91.610568,11.9234852 91.764053,11.9226543 91.9164218,11.9226543 C91.9501885,13.3307939 91.6803339,15.2433044 91.4110375,17.0217591 L90.5350567,22.4565573 C90.5184989,22.5573761 90.5032435,22.6566254 90.4892903,22.7543052 C90.4742208,22.8603865 90.4820346,22.964806 90.470314,23.0675636 C90.4461702,23.3160854 90.4360151,23.5657506 90.439896,23.8153954 L90.439896,23.8237046 C90.4285101,24.0993288 90.441396,24.3754133 90.4784068,24.6488123 C90.4993983,24.7920575 90.5427055,24.9311915 90.6067761,25.0612277 C90.6501404,25.1520799 90.7264946,25.2233116 90.8205388,25.2606495 C90.848673,25.2705634 90.8783101,25.2756221 90.9081648,25.2756062 C91.1082535,25.2756062 91.4191304,25.0725837 91.7760528,24.7014375 C92.3223333,24.1034747 92.7810591,23.4321451 93.1387206,22.7072195 C93.2860662,22.4191658 93.4281096,22.1106159 93.5598276,21.7854476 C93.6915456,21.4602792 93.8134965,21.1162766 93.9226103,20.7570404 C93.9763766,20.5786687 94.0266081,20.39605 94.0733047,20.2091844 L94.5452013,17.122301 C94.6124557,16.7029612 94.6713381,16.3043946 94.723523,15.9135832 C94.8013818,15.3286126 94.8630548,14.7597065 94.9174723,14.1653187 C94.9718897,13.570931 95.012633,12.9493997 95.0508647,12.2575168 C95.1147703,12.2475457 95.183699,12.2375746 95.2562555,12.2278805 C95.2805341,12.2242798 95.3062079,12.2206791 95.3313236,12.2179094 L95.486204,12.1979672 C95.5202497,12.1943665 95.556528,12.1907659 95.5922482,12.1857803 C95.6405262,12.1805178 95.6899204,12.1749783 95.7415472,12.1702697 C95.7811742,12.1652842 95.8227547,12.1611296 95.8640562,12.156698 C95.9142876,12.1514355 95.9653563,12.1467269 96.0183783,12.1414644 C96.064982,12.1364788 96.1118647,12.1323242 96.1604217,12.1278926 C96.2089788,12.123461 96.2586522,12.1193064 96.3088836,12.1143208 C96.3646963,12.1096123 96.4205091,12.1054576 96.4763218,12.1001951 C96.5215301,12.0965945 96.5684128,12.0932708 96.6158536,12.0891161 C96.6803173,12.0841306 96.7442229,12.0788681 96.8111982,12.0744365 C96.8483136,12.0713898 96.8862663,12.1575289 96.9228236,12.1544822 C97.2152823,12.1334321 97.5256011,12.1849494 97.8523846,12.1849494 L97.8523846,12.1849494 C97.9536848,12.1849494 98.0574964,12.0863464 98.161029,12.0810839 C98.1867029,12.0810839 98.2112605,12.0345521 98.2366553,12.0331672 C98.3387926,12.0287356 98.4426043,12.002423 98.546695,11.9977145 C98.5746014,11.9960526 98.6025077,11.9838657 98.6287397,11.9827578 C98.7314351,11.9786032 98.8352468,11.96974 98.9396166,11.9658624 C98.9722671,11.9658624 99.0046385,11.9605999 99.0372889,11.9600459 C99.1416587,11.9564452 99.2468657,11.9520136 99.3529099,11.9486899 C99.3830488,11.9486899 99.4134667,11.9461972 99.4438846,11.9450893 C99.5555101,11.9425965 99.6651821,11.9392728 99.7773657,11.93678 C99.8013652,11.93678 99.8250856,11.8678133 99.8485269,11.8669824 C99.9676871,11.8650436 100.086847,11.7924762 100.206845,11.7924762 L100.206845,11.7924762 C100.494001,11.7924762 100.783948,11.8531337 101.077244,11.8531337 C100.995838,13.5733529 100.815642,15.2875636 100.537535,16.9874143 L99.3252826,24.6205609 C99.1235196,25.8616847 99.6286248,26.483216 100.572418,26.483216 L100.571581,26.483493 Z M104.086946,24.4255707 C104.069174,24.0589537 104.091254,23.6915033 104.152805,23.3295817 L105.433149,15.3804069 C105.202642,15.411982 105.07511,15.4310933 104.94702,15.4513124 C104.656515,15.5019988 104.518657,15.5272035 104.379125,15.554624 C104.17513,15.5942314 103.967227,15.6377164 103.749558,15.6850791 C103.583724,14.5398314 103.58786,13.3766463 103.761836,12.2325891 C104.036993,12.2195712 104.253268,12.2023988 104.648143,12.1863343 C104.850185,12.178579 104.95902,12.1724855 105.073436,12.1675 C105.19734,12.1619605 105.3165,12.178579 105.444032,12.1752553 C105.578541,12.1702697 105.715282,12.1885501 105.853698,12.1885501 C105.95444,12.1885501 106.088111,12.1608526 106.183272,12.1608526 C106.620564,10.9681994 107.328549,9.97192129 107.565474,8.56267385 C107.969558,8.50007756 108.418572,8.43443455 108.95856,8.37876263 C109.197159,8.35328095 109.344784,8.33832431 109.506641,8.3253065 C109.701985,8.30813407 109.90319,8.29373138 110.114999,8.27988265 C110.749869,8.24027526 111.4559,8.21479358 112.239511,8.21479358 C112.206023,9.28862462 112.070119,10.6153336 111.867519,12.1874422 L112.97903,12.1874422 C114.730712,12.1874422 115.424744,11.9711249 115.997382,11.5689576 C116.312309,12.128687 116.481421,12.7576109 116.489371,13.3986527 C116.48686,14.2553355 116.218121,14.8594174 113.483298,14.9322618 C113.299395,14.9366934 113.084795,14.9391861 112.878288,14.9391861 L111.396739,14.9391861 L110.149045,22.8567858 C110.129232,23.0254634 110.122813,23.0614702 110.119744,23.1002466 C110.113883,23.1902634 110.109418,23.2639387 110.108302,23.3362291 C110.089326,24.4252937 110.608942,25.2750522 111.463435,25.2750522 C112.777546,25.2750522 113.082004,24.2344581 113.585714,24.2344581 C113.986889,24.2619907 114.372077,24.4013948 114.696946,24.6366255 L115.503719,25.1382267 C114.596762,26.8502075 112.373183,28.4605386 109.948119,28.4605386 C106.321129,28.4624774 104.217268,26.8698727 104.086946,24.4255707 Z"></path></g></g></g></g></g></g></svg>